<svg width="200" height="40" viewBox="0 0 200 40" fill="none" xmlns="http://www.w3.org/2000/svg">
<rect x="0.5" y="1.5" width="188" height="37" rx="18.5" fill="white"/>
<rect x="0.5" y="1.5" width="188" height="37" rx="18.5" stroke="#B7E90E"/>
<path d="M19.7471 27V15.08H21.1871L25.6511 21.432H24.9151L29.3471 15.08H30.7871V27H29.2031V17.064L29.7631 17.24L25.3311 23.48H25.2031L20.8191 17.24L21.3151 17.064V27H19.7471ZM35.9466 27.192C35.3812 27.192 34.8799 27.0907 34.4426 26.888C34.0159 26.6747 33.6799 26.3867 33.4346 26.024C33.1892 25.6507 33.0666 25.224 33.0666 24.744C33.0666 24.2853 33.1626 23.8747 33.3546 23.512C33.5572 23.1387 33.8666 22.824 34.2826 22.568C34.7092 22.312 35.2426 22.1307 35.8826 22.024L39.0826 21.496V22.744L36.2186 23.224C35.6639 23.32 35.2586 23.496 35.0026 23.752C34.7572 24.008 34.6346 24.3227 34.6346 24.696C34.6346 25.048 34.7732 25.3413 35.0506 25.576C35.3386 25.8107 35.6959 25.928 36.1226 25.928C36.6666 25.928 37.1359 25.816 37.5306 25.592C37.9359 25.3573 38.2506 25.0427 38.4746 24.648C38.7092 24.2533 38.8266 23.816 38.8266 23.336V21.144C38.8266 20.6747 38.6506 20.296 38.2986 20.008C37.9572 19.7093 37.5039 19.56 36.9386 19.56C36.4479 19.56 36.0106 19.688 35.6266 19.944C35.2532 20.1893 34.9759 20.52 34.7946 20.936L33.4986 20.264C33.6586 19.8693 33.9146 19.5173 34.2666 19.208C34.6186 18.888 35.0292 18.6373 35.4986 18.456C35.9679 18.2747 36.4586 18.184 36.9706 18.184C37.6319 18.184 38.2132 18.312 38.7146 18.568C39.2159 18.8133 39.6052 19.16 39.8826 19.608C40.1706 20.0453 40.3146 20.5573 40.3146 21.144V27H38.8586V25.368L39.1306 25.464C38.9492 25.8053 38.7039 26.104 38.3946 26.36C38.0852 26.616 37.7226 26.8187 37.3066 26.968C36.8906 27.1173 36.4372 27.192 35.9466 27.192ZM36.2346 16.76L37.4986 14.232H39.5146L37.7226 16.76H36.2346ZM45.8697 27.192C45.0057 27.192 44.2537 26.9787 43.6137 26.552C42.9737 26.1253 42.5204 25.5493 42.2537 24.824L43.4377 24.248C43.683 24.76 44.019 25.1653 44.4457 25.464C44.8724 25.7627 45.347 25.912 45.8697 25.912C46.339 25.912 46.7284 25.8 47.0377 25.576C47.347 25.352 47.5017 25.0587 47.5017 24.696C47.5017 24.44 47.427 24.2373 47.2777 24.088C47.139 23.928 46.9684 23.8053 46.7657 23.72C46.563 23.624 46.3764 23.5547 46.2057 23.512L44.9097 23.144C44.131 22.92 43.5604 22.6 43.1977 22.184C42.8457 21.768 42.6697 21.2827 42.6697 20.728C42.6697 20.216 42.7977 19.7733 43.0537 19.4C43.3204 19.016 43.6777 18.7173 44.1257 18.504C44.5844 18.2907 45.0964 18.184 45.6617 18.184C46.419 18.184 47.0964 18.376 47.6937 18.76C48.3017 19.144 48.7337 19.6827 48.9897 20.376L47.7737 20.936C47.5817 20.488 47.2937 20.136 46.9097 19.88C46.5257 19.6133 46.0937 19.48 45.6137 19.48C45.1764 19.48 44.8297 19.592 44.5737 19.816C44.3177 20.0293 44.1897 20.3013 44.1897 20.632C44.1897 20.8773 44.2537 21.08 44.3817 21.24C44.5097 21.3893 44.6644 21.5067 44.8457 21.592C45.027 21.6667 45.203 21.7307 45.3737 21.784L46.7817 22.2C47.4857 22.4027 48.0297 22.7173 48.4137 23.144C48.8084 23.5707 49.0057 24.0827 49.0057 24.68C49.0057 25.16 48.8724 25.592 48.6057 25.976C48.339 26.36 47.971 26.6587 47.5017 26.872C47.0324 27.0853 46.4884 27.192 45.8697 27.192ZM54.0392 27V18.376H55.5272V27H54.0392ZM54.0392 17V15.08H55.5272V17H54.0392ZM57.9961 27V18.376H59.4521V20.056L59.2121 19.912C59.4254 19.368 59.7667 18.9467 60.2361 18.648C60.7161 18.3387 61.2761 18.184 61.9161 18.184C62.5347 18.184 63.0841 18.3227 63.5641 18.6C64.0547 18.8773 64.4387 19.2613 64.7161 19.752C65.0041 20.2427 65.1481 20.7973 65.1481 21.416V27H63.6441V21.896C63.6441 21.416 63.5587 21.0107 63.3881 20.68C63.2174 20.3493 62.9721 20.0933 62.6521 19.912C62.3427 19.72 61.9854 19.624 61.5801 19.624C61.1747 19.624 60.8121 19.72 60.4921 19.912C60.1827 20.0933 59.9374 20.3547 59.7561 20.696C59.5747 21.0267 59.4841 21.4267 59.4841 21.896V27H57.9961ZM68.3493 27V19.8H66.7013V18.376H68.3493V17.768C68.3493 17.1493 68.4826 16.6267 68.7493 16.2C69.0266 15.7733 69.3893 15.448 69.8373 15.224C70.296 15 70.8026 14.888 71.3573 14.888C71.4746 14.888 71.6026 14.8987 71.7413 14.92C71.8906 14.9307 72.0133 14.9467 72.1093 14.968V16.296C72.024 16.2747 71.9226 16.264 71.8053 16.264C71.688 16.2533 71.5973 16.248 71.5333 16.248C71.0426 16.248 70.6373 16.3653 70.3173 16.6C70.008 16.8347 69.8533 17.224 69.8533 17.768V18.376H71.9013V19.8H69.8533V27H68.3493ZM77.6464 27.192C76.8144 27.192 76.0624 27 75.3904 26.616C74.7184 26.2213 74.1851 25.6827 73.7904 25C73.3958 24.3173 73.1984 23.544 73.1984 22.68C73.1984 21.816 73.3904 21.048 73.7744 20.376C74.1691 19.704 74.7024 19.1707 75.3744 18.776C76.0464 18.3813 76.8038 18.184 77.6464 18.184C78.4784 18.184 79.2304 18.3813 79.9024 18.776C80.5744 19.16 81.1024 19.688 81.4864 20.36C81.8811 21.032 82.0784 21.8053 82.0784 22.68C82.0784 23.5547 81.8758 24.3333 81.4704 25.016C81.0651 25.688 80.5264 26.2213 79.8544 26.616C79.1931 27 78.4571 27.192 77.6464 27.192ZM77.6464 25.752C78.1798 25.752 78.6598 25.6187 79.0864 25.352C79.5238 25.0853 79.8651 24.7173 80.1104 24.248C80.3664 23.7787 80.4944 23.256 80.4944 22.68C80.4944 22.0933 80.3664 21.576 80.1104 21.128C79.8651 20.6693 79.5238 20.3067 79.0864 20.04C78.6598 19.7627 78.1798 19.624 77.6464 19.624C77.1024 19.624 76.6118 19.7627 76.1744 20.04C75.7478 20.3067 75.4064 20.6693 75.1504 21.128C74.8944 21.576 74.7664 22.0933 74.7664 22.68C74.7664 23.256 74.8944 23.7787 75.1504 24.248C75.4064 24.7173 75.7478 25.0853 76.1744 25.352C76.6118 25.6187 77.1024 25.752 77.6464 25.752ZM84.1792 27V18.376H85.6352V19.96L85.4752 19.736C85.6779 19.2453 85.9872 18.8827 86.4032 18.648C86.8192 18.4027 87.3259 18.28 87.9232 18.28H88.4512V19.688H87.6992C87.0912 19.688 86.6005 19.88 86.2272 20.264C85.8539 20.6373 85.6672 21.1707 85.6672 21.864V27H84.1792ZM89.9329 27V18.376H91.3889V20.136L91.1809 19.864C91.3943 19.32 91.7356 18.904 92.2049 18.616C92.6743 18.328 93.2023 18.184 93.7889 18.184C94.4609 18.184 95.0636 18.3707 95.5969 18.744C96.1409 19.1173 96.5143 19.608 96.7169 20.216L96.3009 20.232C96.5249 19.56 96.9036 19.0533 97.4369 18.712C97.9703 18.36 98.5623 18.184 99.2129 18.184C99.8103 18.184 100.349 18.3227 100.829 18.6C101.32 18.8773 101.709 19.2613 101.997 19.752C102.285 20.2427 102.429 20.7973 102.429 21.416V27H100.925V21.896C100.925 21.416 100.84 21.0107 100.669 20.68C100.498 20.3493 100.264 20.0933 99.9649 19.912C99.6769 19.72 99.3356 19.624 98.9409 19.624C98.5569 19.624 98.2103 19.72 97.9009 19.912C97.6023 20.0933 97.3623 20.3547 97.1809 20.696C97.0103 21.0267 96.9249 21.4267 96.9249 21.896V27H95.4209V21.896C95.4209 21.416 95.3356 21.0107 95.1649 20.68C94.9943 20.3493 94.7596 20.0933 94.4609 19.912C94.1729 19.72 93.8316 19.624 93.4369 19.624C93.0529 19.624 92.7063 19.72 92.3969 19.912C92.0983 20.0933 91.8583 20.3547 91.6769 20.696C91.5063 21.0267 91.4209 21.4267 91.4209 21.896V27H89.9329ZM107.23 27.192C106.665 27.192 106.164 27.0907 105.726 26.888C105.3 26.6747 104.964 26.3867 104.718 26.024C104.473 25.6507 104.35 25.224 104.35 24.744C104.35 24.2853 104.446 23.8747 104.638 23.512C104.841 23.1387 105.15 22.824 105.566 22.568C105.993 22.312 106.526 22.1307 107.166 22.024L110.366 21.496V22.744L107.502 23.224C106.948 23.32 106.542 23.496 106.286 23.752C106.041 24.008 105.918 24.3227 105.918 24.696C105.918 25.048 106.057 25.3413 106.334 25.576C106.622 25.8107 106.98 25.928 107.406 25.928C107.95 25.928 108.42 25.816 108.814 25.592C109.22 25.3573 109.534 25.0427 109.758 24.648C109.993 24.2533 110.11 23.816 110.11 23.336V21.144C110.11 20.6747 109.934 20.296 109.582 20.008C109.241 19.7093 108.788 19.56 108.222 19.56C107.732 19.56 107.294 19.688 106.91 19.944C106.537 20.1893 106.26 20.52 106.078 20.936L104.782 20.264C104.942 19.8693 105.198 19.5173 105.55 19.208C105.902 18.888 106.313 18.6373 106.782 18.456C107.252 18.2747 107.742 18.184 108.254 18.184C108.916 18.184 109.497 18.312 109.998 18.568C110.5 18.8133 110.889 19.16 111.166 19.608C111.454 20.0453 111.598 20.5573 111.598 21.144V27H110.142V25.368L110.414 25.464C110.233 25.8053 109.988 26.104 109.678 26.36C109.369 26.616 109.006 26.8187 108.59 26.968C108.174 27.1173 107.721 27.192 107.23 27.192ZM118.065 27.192C117.223 27.192 116.471 26.9947 115.809 26.6C115.159 26.2053 114.647 25.6667 114.273 24.984C113.9 24.3013 113.713 23.5333 113.713 22.68C113.713 21.816 113.9 21.048 114.273 20.376C114.647 19.704 115.159 19.1707 115.809 18.776C116.471 18.3813 117.223 18.184 118.065 18.184C118.631 18.184 119.159 18.2853 119.649 18.488C120.14 18.6907 120.572 18.9627 120.945 19.304C121.319 19.6453 121.591 20.0453 121.761 20.504L120.433 21.144C120.231 20.696 119.921 20.3333 119.505 20.056C119.089 19.768 118.609 19.624 118.065 19.624C117.543 19.624 117.068 19.7573 116.641 20.024C116.225 20.2907 115.895 20.6533 115.649 21.112C115.404 21.5707 115.281 22.0987 115.281 22.696C115.281 23.272 115.404 23.7947 115.649 24.264C115.895 24.7227 116.225 25.0853 116.641 25.352C117.068 25.6187 117.543 25.752 118.065 25.752C118.609 25.752 119.089 25.6133 119.505 25.336C119.921 25.048 120.231 24.6693 120.433 24.2L121.761 24.872C121.591 25.32 121.319 25.72 120.945 26.072C120.572 26.4133 120.14 26.6853 119.649 26.888C119.159 27.0907 118.631 27.192 118.065 27.192ZM123.866 27V18.376H125.354V27H123.866ZM123.866 17V15.08H125.354V17H123.866ZM131.919 27.192C131.087 27.192 130.335 27 129.663 26.616C128.991 26.2213 128.458 25.6827 128.063 25C127.668 24.3173 127.471 23.544 127.471 22.68C127.471 21.816 127.663 21.048 128.047 20.376C128.442 19.704 128.975 19.1707 129.647 18.776C130.319 18.3813 131.076 18.184 131.919 18.184C132.751 18.184 133.503 18.3813 134.175 18.776C134.847 19.16 135.375 19.688 135.759 20.36C136.154 21.032 136.351 21.8053 136.351 22.68C136.351 23.5547 136.148 24.3333 135.743 25.016C135.338 25.688 134.799 26.2213 134.127 26.616C133.466 27 132.73 27.192 131.919 27.192ZM131.919 25.752C132.452 25.752 132.932 25.6187 133.359 25.352C133.796 25.0853 134.138 24.7173 134.383 24.248C134.639 23.7787 134.767 23.256 134.767 22.68C134.767 22.0933 134.639 21.576 134.383 21.128C134.138 20.6693 133.796 20.3067 133.359 20.04C132.932 19.7627 132.452 19.624 131.919 19.624C131.375 19.624 130.884 19.7627 130.447 20.04C130.02 20.3067 129.679 20.6693 129.423 21.128C129.167 21.576 129.039 22.0933 129.039 22.68C129.039 23.256 129.167 23.7787 129.423 24.248C129.679 24.7173 130.02 25.0853 130.447 25.352C130.884 25.6187 131.375 25.752 131.919 25.752ZM131.167 16.76L132.431 14.232H134.447L132.655 16.76H131.167ZM138.452 27V18.376H139.908V20.056L139.668 19.912C139.881 19.368 140.222 18.9467 140.692 18.648C141.172 18.3387 141.732 18.184 142.372 18.184C142.99 18.184 143.54 18.3227 144.02 18.6C144.51 18.8773 144.894 19.2613 145.172 19.752C145.46 20.2427 145.604 20.7973 145.604 21.416V27H144.1V21.896C144.1 21.416 144.014 21.0107 143.844 20.68C143.673 20.3493 143.428 20.0933 143.108 19.912C142.798 19.72 142.441 19.624 142.036 19.624C141.63 19.624 141.268 19.72 140.948 19.912C140.638 20.0933 140.393 20.3547 140.212 20.696C140.03 21.0267 139.94 21.4267 139.94 21.896V27H138.452Z" fill="black"/>
<rect width="40" height="40" rx="20" transform="matrix(1 0 0 -1 159.5 40)" fill="#B7E90E"/>
<path d="M174.5 15L184.5 25" stroke="#1E1E1E" stroke-width="2" stroke-linecap="round" stroke-linejoin="round"/>
<path d="M174.5 25H184.5V15" stroke="#1E1E1E" stroke-width="2" stroke-linecap="round" stroke-linejoin="round"/>
</svg>
