<svg width="27" height="26" viewBox="0 0 27 26" fill="none" xmlns="http://www.w3.org/2000/svg">
<path d="M10.2772 2.22985C11.0285 -0.743289 15.2527 -0.743289 16.004 2.22985C16.455 4.01439 18.4107 4.95621 20.087 4.19612C22.8799 2.92978 25.5137 6.23242 23.6576 8.67352C22.5436 10.1387 23.0266 12.255 24.6661 13.0917C27.3975 14.4857 26.4575 18.6041 23.3917 18.6749C21.5516 18.7174 20.1982 20.4145 20.5662 22.218C21.1793 25.2227 17.3734 27.0555 15.4065 24.7028C14.226 23.2906 12.0553 23.2906 10.8747 24.7028C8.90785 27.0555 5.10194 25.2227 5.71505 22.218C6.08306 20.4145 4.72967 18.7174 2.88952 18.6749C-0.17625 18.6041 -1.11623 14.4857 1.61519 13.0917C3.25465 12.255 3.73767 10.1387 2.62361 8.67352C0.76753 6.23242 3.4013 2.92978 6.19421 4.19612C7.87058 4.95621 9.82629 4.01439 10.2772 2.22985Z" fill="#B7E90E"/>
</svg>
